<mxfile host="app.diagrams.net" modified="2023-10-03T04:25:54.373Z" agent="Mozilla/5.0 (Windows NT 10.0; Win64; x64) AppleWebKit/537.36 (KHTML, like Gecko) Chrome/117.0.0.0 Safari/537.36" etag="4qnHUGLwxjYcq-KSsPo6" version="22.0.0" type="github">
  <diagram name="Page-1" id="2YBvvXClWsGukQMizWep">
    <mxGraphModel dx="1075" dy="472" grid="1" gridSize="10" guides="1" tooltips="1" connect="1" arrows="1" fold="1" page="1" pageScale="1" pageWidth="850" pageHeight="1100" math="0" shadow="0">
      <root>
        <mxCell id="0" />
        <mxCell id="1" parent="0" />
        <mxCell id="aM9ryv3xv72pqoxQDRHE-7" value="User Log-in" style="html=1;verticalAlign=bottom;endArrow=block;edgeStyle=elbowEdgeStyle;elbow=vertical;curved=0;rounded=0;" parent="1" source="e6sOTlOrPYM_l85QJ9jS-5" target="e6sOTlOrPYM_l85QJ9jS-4" edge="1">
          <mxGeometry x="-0.0526" relative="1" as="geometry">
            <mxPoint x="198" y="465" as="sourcePoint" />
            <Array as="points">
              <mxPoint x="253" y="465" />
            </Array>
            <mxPoint x="368" y="465" as="targetPoint" />
            <mxPoint as="offset" />
          </mxGeometry>
        </mxCell>
        <mxCell id="aM9ryv3xv72pqoxQDRHE-8" value="Log-in Valid" style="html=1;verticalAlign=bottom;endArrow=open;dashed=1;endSize=8;edgeStyle=elbowEdgeStyle;elbow=vertical;curved=0;rounded=0;" parent="1" source="e6sOTlOrPYM_l85QJ9jS-6" target="e6sOTlOrPYM_l85QJ9jS-4" edge="1">
          <mxGeometry x="0.129" relative="1" as="geometry">
            <mxPoint x="468" y="505" as="targetPoint" />
            <Array as="points">
              <mxPoint x="623" y="505" />
            </Array>
            <mxPoint as="offset" />
            <mxPoint x="658" y="505" as="sourcePoint" />
          </mxGeometry>
        </mxCell>
        <mxCell id="aM9ryv3xv72pqoxQDRHE-9" value="Logs user in" style="html=1;verticalAlign=bottom;endArrow=block;edgeStyle=elbowEdgeStyle;elbow=vertical;curved=0;rounded=0;" parent="1" source="e6sOTlOrPYM_l85QJ9jS-4" target="e6sOTlOrPYM_l85QJ9jS-5" edge="1">
          <mxGeometry x="-0.04" relative="1" as="geometry">
            <mxPoint x="438" y="520" as="sourcePoint" />
            <Array as="points">
              <mxPoint x="373" y="520" />
            </Array>
            <mxPoint x="258" y="520" as="targetPoint" />
            <mxPoint as="offset" />
          </mxGeometry>
        </mxCell>
        <mxCell id="aM9ryv3xv72pqoxQDRHE-10" value="Triage Results" style="html=1;verticalAlign=bottom;endArrow=open;dashed=1;endSize=8;edgeStyle=elbowEdgeStyle;elbow=vertical;curved=0;rounded=0;exitX=0.517;exitY=0.9;exitDx=0;exitDy=0;exitPerimeter=0;" parent="1" source="e6sOTlOrPYM_l85QJ9jS-6" target="e6sOTlOrPYM_l85QJ9jS-4" edge="1">
          <mxGeometry x="-0.0476" relative="1" as="geometry">
            <mxPoint x="458" y="665" as="targetPoint" />
            <Array as="points">
              <mxPoint x="458" y="665" />
              <mxPoint x="328" y="705" />
            </Array>
            <mxPoint as="offset" />
            <mxPoint x="657.5" y="665" as="sourcePoint" />
          </mxGeometry>
        </mxCell>
        <mxCell id="Fqp0eiGmuYtmVZ3RJ4ig-9" value="Start of Virtual Triage" style="html=1;verticalAlign=bottom;endArrow=block;edgeStyle=elbowEdgeStyle;elbow=vertical;curved=0;rounded=0;" parent="1" edge="1" target="e6sOTlOrPYM_l85QJ9jS-4" source="e6sOTlOrPYM_l85QJ9jS-5">
          <mxGeometry x="-0.0526" relative="1" as="geometry">
            <mxPoint x="198" y="575" as="sourcePoint" />
            <Array as="points">
              <mxPoint x="263" y="575" />
            </Array>
            <mxPoint x="368" y="575" as="targetPoint" />
            <mxPoint as="offset" />
          </mxGeometry>
        </mxCell>
        <mxCell id="e6sOTlOrPYM_l85QJ9jS-4" value="Mister ED System" style="shape=umlLifeline;perimeter=lifelinePerimeter;whiteSpace=wrap;html=1;container=0;dropTarget=0;collapsible=0;recursiveResize=0;outlineConnect=0;portConstraint=eastwest;newEdgeStyle={&quot;edgeStyle&quot;:&quot;elbowEdgeStyle&quot;,&quot;elbow&quot;:&quot;vertical&quot;,&quot;curved&quot;:0,&quot;rounded&quot;:0};" vertex="1" parent="1">
          <mxGeometry x="360" y="400" width="130" height="300" as="geometry" />
        </mxCell>
        <mxCell id="e6sOTlOrPYM_l85QJ9jS-5" value="User" style="shape=umlLifeline;perimeter=lifelinePerimeter;whiteSpace=wrap;html=1;container=0;dropTarget=0;collapsible=0;recursiveResize=0;outlineConnect=0;portConstraint=eastwest;newEdgeStyle={&quot;edgeStyle&quot;:&quot;elbowEdgeStyle&quot;,&quot;elbow&quot;:&quot;vertical&quot;,&quot;curved&quot;:0,&quot;rounded&quot;:0};" vertex="1" parent="1">
          <mxGeometry x="123" y="395" width="100" height="300" as="geometry" />
        </mxCell>
        <mxCell id="e6sOTlOrPYM_l85QJ9jS-6" value="Database" style="shape=umlLifeline;perimeter=lifelinePerimeter;whiteSpace=wrap;html=1;container=0;dropTarget=0;collapsible=0;recursiveResize=0;outlineConnect=0;portConstraint=eastwest;newEdgeStyle={&quot;edgeStyle&quot;:&quot;elbowEdgeStyle&quot;,&quot;elbow&quot;:&quot;vertical&quot;,&quot;curved&quot;:0,&quot;rounded&quot;:0};" vertex="1" parent="1">
          <mxGeometry x="628" y="395" width="100" height="300" as="geometry" />
        </mxCell>
        <mxCell id="e6sOTlOrPYM_l85QJ9jS-7" value="Verify Account" style="html=1;verticalAlign=bottom;endArrow=block;edgeStyle=elbowEdgeStyle;elbow=vertical;curved=0;rounded=0;entryX=0.483;entryY=0.26;entryDx=0;entryDy=0;entryPerimeter=0;" edge="1" parent="1" source="e6sOTlOrPYM_l85QJ9jS-4" target="e6sOTlOrPYM_l85QJ9jS-6">
          <mxGeometry x="-0.0526" relative="1" as="geometry">
            <mxPoint x="468" y="475" as="sourcePoint" />
            <Array as="points">
              <mxPoint x="628" y="473" />
            </Array>
            <mxPoint x="628" y="475" as="targetPoint" />
            <mxPoint as="offset" />
          </mxGeometry>
        </mxCell>
        <mxCell id="e6sOTlOrPYM_l85QJ9jS-10" value="End of Virtual Triage" style="html=1;verticalAlign=bottom;endArrow=block;edgeStyle=elbowEdgeStyle;elbow=vertical;curved=0;rounded=0;" edge="1" parent="1" source="e6sOTlOrPYM_l85QJ9jS-4">
          <mxGeometry x="-0.0526" relative="1" as="geometry">
            <mxPoint x="458" y="635" as="sourcePoint" />
            <Array as="points">
              <mxPoint x="523" y="635" />
            </Array>
            <mxPoint x="678" y="635" as="targetPoint" />
            <mxPoint as="offset" />
          </mxGeometry>
        </mxCell>
        <mxCell id="e6sOTlOrPYM_l85QJ9jS-11" value="Triage Results" style="html=1;verticalAlign=bottom;endArrow=open;dashed=1;endSize=8;edgeStyle=elbowEdgeStyle;elbow=vertical;curved=0;rounded=0;" edge="1" parent="1" source="e6sOTlOrPYM_l85QJ9jS-4" target="e6sOTlOrPYM_l85QJ9jS-5">
          <mxGeometry x="-0.0476" relative="1" as="geometry">
            <mxPoint x="197.32352941176464" y="675" as="targetPoint" />
            <Array as="points">
              <mxPoint x="239" y="675" />
              <mxPoint x="109" y="715" />
            </Array>
            <mxPoint as="offset" />
            <mxPoint x="438.5" y="675" as="sourcePoint" />
          </mxGeometry>
        </mxCell>
      </root>
    </mxGraphModel>
  </diagram>
</mxfile>
